<svg width="512" height="512" viewBox="0 0 512 512" fill="none" xmlns="http://www.w3.org/2000/svg">
<path d="M512 256C512 397.387 397.387 512 256 512C114.613 512 0 397.387 0 256C0 114.613 114.613 0 256 0C397.387 0 512 114.613 512 256Z" fill="#2E82FF"/>
<path d="M256 455.973C244.945 455.973 233.895 453.129 224.035 447.445L106.055 379.41C86.3008 368.02 74.0312 346.781 74.0312 323.98V188.02C74.0312 165.219 86.3008 143.98 106.055 132.59L224.035 64.5547C243.754 53.1836 268.246 53.1875 287.965 64.5547L405.945 132.59C425.699 143.98 437.969 165.219 437.969 188.02V323.98C437.969 346.781 425.699 368.02 405.945 379.41L287.965 447.445C278.105 453.129 267.051 455.973 256 455.973ZM256 86.0156C250.129 86.0156 244.258 87.5234 239.023 90.543L121.039 158.578C110.547 164.629 104.031 175.906 104.031 188.02V323.98C104.031 336.09 110.547 347.371 121.039 353.422L239.023 421.453C249.496 427.492 262.504 427.492 272.977 421.453L390.961 353.422C401.453 347.371 407.969 336.09 407.969 323.98V188.02C407.969 175.91 401.453 164.629 390.961 158.578L272.977 90.543C267.742 87.5234 261.871 86.0156 256 86.0156Z" fill="white"/>
<path d="M172.754 320.27C168.492 320.273 164.262 318.469 161.297 314.961C155.945 308.637 156.73 299.172 163.059 293.82L207.754 256L163.059 218.18C156.734 212.828 155.945 203.363 161.297 197.039C166.645 190.715 176.109 189.926 182.434 195.277L240.664 244.547C244.031 247.398 245.977 251.586 245.977 256C245.977 260.41 244.031 264.602 240.664 267.449L182.434 316.723C179.617 319.105 176.176 320.27 172.754 320.27Z" fill="white"/>
<path d="M339.254 320.27H268.707C260.422 320.27 253.707 313.555 253.707 305.27C253.707 296.988 260.422 290.27 268.707 290.27H339.254C347.539 290.27 354.254 296.988 354.254 305.27C354.254 313.555 347.539 320.27 339.254 320.27Z" fill="white"/>
<path d="M267.235 260.15C267.235 259.431 266.981 258.881 266.474 258.5C265.966 258.111 265.052 257.704 263.731 257.281C262.411 256.85 261.366 256.426 260.596 256.012C258.497 254.878 257.447 253.35 257.447 251.429C257.447 250.43 257.727 249.541 258.285 248.763C258.852 247.976 259.66 247.362 260.71 246.922C261.768 246.482 262.953 246.262 264.265 246.262C265.585 246.262 266.761 246.503 267.794 246.985C268.826 247.459 269.626 248.132 270.193 249.004C270.769 249.876 271.057 250.866 271.057 251.975H267.248C267.248 251.128 266.981 250.472 266.448 250.007C265.915 249.533 265.166 249.296 264.201 249.296C263.27 249.296 262.547 249.495 262.03 249.893C261.514 250.282 261.256 250.798 261.256 251.441C261.256 252.042 261.556 252.546 262.157 252.952C262.767 253.358 263.66 253.739 264.836 254.095C267.003 254.746 268.581 255.555 269.571 256.52C270.562 257.484 271.057 258.686 271.057 260.125C271.057 261.725 270.451 262.981 269.241 263.896C268.031 264.801 266.402 265.254 264.354 265.254C262.932 265.254 261.637 264.996 260.469 264.479C259.301 263.955 258.408 263.24 257.79 262.334C257.181 261.428 256.876 260.379 256.876 259.186H260.697C260.697 261.225 261.916 262.245 264.354 262.245C265.259 262.245 265.966 262.063 266.474 261.699C266.981 261.327 267.235 260.811 267.235 260.15ZM272.834 258.005C272.834 256.642 273.096 255.428 273.621 254.361C274.146 253.295 274.899 252.47 275.881 251.886C276.871 251.302 278.018 251.01 279.321 251.01C281.175 251.01 282.686 251.577 283.854 252.711C285.03 253.845 285.686 255.385 285.821 257.332L285.847 258.271C285.847 260.379 285.258 262.072 284.082 263.35C282.906 264.619 281.327 265.254 279.347 265.254C277.366 265.254 275.784 264.619 274.599 263.35C273.422 262.08 272.834 260.354 272.834 258.17V258.005ZM276.503 258.271C276.503 259.575 276.748 260.574 277.239 261.268C277.73 261.953 278.433 262.296 279.347 262.296C280.235 262.296 280.929 261.957 281.429 261.28C281.928 260.595 282.178 259.503 282.178 258.005C282.178 256.727 281.928 255.737 281.429 255.034C280.929 254.332 280.227 253.98 279.321 253.98C278.424 253.98 277.73 254.332 277.239 255.034C276.748 255.728 276.503 256.807 276.503 258.271ZM295.825 254.704C295.326 254.636 294.886 254.603 294.505 254.603C293.117 254.603 292.207 255.072 291.775 256.012V265H288.106V251.264H291.572L291.674 252.901C292.41 251.64 293.43 251.01 294.733 251.01C295.14 251.01 295.521 251.065 295.876 251.175L295.825 254.704ZM302.63 247.887V251.264H304.979V253.955H302.63V260.811C302.63 261.318 302.727 261.682 302.922 261.902C303.117 262.122 303.489 262.232 304.039 262.232C304.445 262.232 304.805 262.203 305.118 262.144V264.924C304.399 265.144 303.658 265.254 302.896 265.254C300.324 265.254 299.012 263.955 298.961 261.356V253.955H296.955V251.264H298.961V247.887H302.63ZM321.774 258.843C321.631 260.832 320.894 262.397 319.565 263.54C318.245 264.683 316.502 265.254 314.335 265.254C311.965 265.254 310.099 264.458 308.736 262.867C307.382 261.268 306.705 259.076 306.705 256.291V255.161C306.705 253.384 307.018 251.818 307.645 250.464C308.271 249.11 309.164 248.073 310.323 247.354C311.491 246.626 312.845 246.262 314.386 246.262C316.519 246.262 318.237 246.833 319.54 247.976C320.843 249.118 321.597 250.722 321.8 252.787H317.991C317.898 251.594 317.564 250.73 316.988 250.197C316.421 249.656 315.554 249.385 314.386 249.385C313.116 249.385 312.164 249.842 311.529 250.756C310.903 251.661 310.581 253.071 310.564 254.983V256.38C310.564 258.377 310.865 259.837 311.466 260.76C312.075 261.682 313.032 262.144 314.335 262.144C315.511 262.144 316.387 261.877 316.963 261.344C317.547 260.802 317.881 259.968 317.966 258.843H321.774ZM323.463 258.005C323.463 256.642 323.725 255.428 324.25 254.361C324.775 253.295 325.528 252.47 326.51 251.886C327.5 251.302 328.647 251.01 329.95 251.01C331.804 251.01 333.314 251.577 334.482 252.711C335.659 253.845 336.315 255.385 336.45 257.332L336.476 258.271C336.476 260.379 335.887 262.072 334.711 263.35C333.535 264.619 331.956 265.254 329.976 265.254C327.995 265.254 326.412 264.619 325.228 263.35C324.051 262.08 323.463 260.354 323.463 258.17V258.005ZM327.132 258.271C327.132 259.575 327.377 260.574 327.868 261.268C328.359 261.953 329.062 262.296 329.976 262.296C330.864 262.296 331.558 261.957 332.058 261.28C332.557 260.595 332.807 259.503 332.807 258.005C332.807 256.727 332.557 255.737 332.058 255.034C331.558 254.332 330.856 253.98 329.95 253.98C329.053 253.98 328.359 254.332 327.868 255.034C327.377 255.728 327.132 256.807 327.132 258.271ZM338.164 258.03C338.164 255.889 338.642 254.184 339.599 252.914C340.563 251.645 341.88 251.01 343.547 251.01C344.884 251.01 345.989 251.509 346.86 252.508V245.5H350.542V265H347.229L347.051 263.54C346.137 264.683 344.96 265.254 343.521 265.254C341.905 265.254 340.606 264.619 339.624 263.35C338.651 262.072 338.164 260.299 338.164 258.03ZM341.833 258.297C341.833 259.583 342.057 260.569 342.506 261.255C342.954 261.94 343.606 262.283 344.461 262.283C345.595 262.283 346.395 261.805 346.86 260.849V255.428C346.403 254.471 345.612 253.993 344.486 253.993C342.717 253.993 341.833 255.428 341.833 258.297ZM359.708 265.254C357.694 265.254 356.052 264.636 354.782 263.4C353.521 262.165 352.891 260.519 352.891 258.462V258.106C352.891 256.727 353.157 255.495 353.69 254.412C354.224 253.32 354.977 252.482 355.95 251.898C356.932 251.306 358.049 251.01 359.302 251.01C361.181 251.01 362.658 251.602 363.732 252.787C364.816 253.972 365.357 255.652 365.357 257.827V259.325H356.61C356.729 260.222 357.084 260.942 357.677 261.483C358.278 262.025 359.035 262.296 359.949 262.296C361.363 262.296 362.467 261.784 363.263 260.76L365.065 262.778C364.515 263.557 363.771 264.166 362.831 264.606C361.892 265.038 360.851 265.254 359.708 265.254ZM359.289 253.98C358.561 253.98 357.969 254.226 357.512 254.717C357.063 255.208 356.775 255.91 356.648 256.824H361.752V256.532C361.735 255.72 361.515 255.093 361.092 254.653C360.669 254.205 360.068 253.98 359.289 253.98Z" fill="white"/>
<path d="M267.235 260.15C267.235 259.431 266.981 258.881 266.474 258.5C265.966 258.111 265.052 257.704 263.731 257.281C262.411 256.85 261.366 256.426 260.596 256.012C258.497 254.878 257.447 253.35 257.447 251.429C257.447 250.43 257.727 249.541 258.285 248.763C258.852 247.976 259.66 247.362 260.71 246.922C261.768 246.482 262.953 246.262 264.265 246.262C265.585 246.262 266.761 246.503 267.794 246.985C268.826 247.459 269.626 248.132 270.193 249.004C270.769 249.876 271.057 250.866 271.057 251.975H267.248C267.248 251.128 266.981 250.472 266.448 250.007C265.915 249.533 265.166 249.296 264.201 249.296C263.27 249.296 262.547 249.495 262.03 249.893C261.514 250.282 261.256 250.798 261.256 251.441C261.256 252.042 261.556 252.546 262.157 252.952C262.767 253.358 263.66 253.739 264.836 254.095C267.003 254.746 268.581 255.555 269.571 256.52C270.562 257.484 271.057 258.686 271.057 260.125C271.057 261.725 270.451 262.981 269.241 263.896C268.031 264.801 266.402 265.254 264.354 265.254C262.932 265.254 261.637 264.996 260.469 264.479C259.301 263.955 258.408 263.24 257.79 262.334C257.181 261.428 256.876 260.379 256.876 259.186H260.697C260.697 261.225 261.916 262.245 264.354 262.245C265.259 262.245 265.966 262.063 266.474 261.699C266.981 261.327 267.235 260.811 267.235 260.15ZM272.834 258.005C272.834 256.642 273.096 255.428 273.621 254.361C274.146 253.295 274.899 252.47 275.881 251.886C276.871 251.302 278.018 251.01 279.321 251.01C281.175 251.01 282.686 251.577 283.854 252.711C285.03 253.845 285.686 255.385 285.821 257.332L285.847 258.271C285.847 260.379 285.258 262.072 284.082 263.35C282.906 264.619 281.327 265.254 279.347 265.254C277.366 265.254 275.784 264.619 274.599 263.35C273.422 262.08 272.834 260.354 272.834 258.17V258.005ZM276.503 258.271C276.503 259.575 276.748 260.574 277.239 261.268C277.73 261.953 278.433 262.296 279.347 262.296C280.235 262.296 280.929 261.957 281.429 261.28C281.928 260.595 282.178 259.503 282.178 258.005C282.178 256.727 281.928 255.737 281.429 255.034C280.929 254.332 280.227 253.98 279.321 253.98C278.424 253.98 277.73 254.332 277.239 255.034C276.748 255.728 276.503 256.807 276.503 258.271ZM295.825 254.704C295.326 254.636 294.886 254.603 294.505 254.603C293.117 254.603 292.207 255.072 291.775 256.012V265H288.106V251.264H291.572L291.674 252.901C292.41 251.64 293.43 251.01 294.733 251.01C295.14 251.01 295.521 251.065 295.876 251.175L295.825 254.704ZM302.63 247.887V251.264H304.979V253.955H302.63V260.811C302.63 261.318 302.727 261.682 302.922 261.902C303.117 262.122 303.489 262.232 304.039 262.232C304.445 262.232 304.805 262.203 305.118 262.144V264.924C304.399 265.144 303.658 265.254 302.896 265.254C300.324 265.254 299.012 263.955 298.961 261.356V253.955H296.955V251.264H298.961V247.887H302.63ZM321.774 258.843C321.631 260.832 320.894 262.397 319.565 263.54C318.245 264.683 316.502 265.254 314.335 265.254C311.965 265.254 310.099 264.458 308.736 262.867C307.382 261.268 306.705 259.076 306.705 256.291V255.161C306.705 253.384 307.018 251.818 307.645 250.464C308.271 249.11 309.164 248.073 310.323 247.354C311.491 246.626 312.845 246.262 314.386 246.262C316.519 246.262 318.237 246.833 319.54 247.976C320.843 249.118 321.597 250.722 321.8 252.787H317.991C317.898 251.594 317.564 250.73 316.988 250.197C316.421 249.656 315.554 249.385 314.386 249.385C313.116 249.385 312.164 249.842 311.529 250.756C310.903 251.661 310.581 253.071 310.564 254.983V256.38C310.564 258.377 310.865 259.837 311.466 260.76C312.075 261.682 313.032 262.144 314.335 262.144C315.511 262.144 316.387 261.877 316.963 261.344C317.547 260.802 317.881 259.968 317.966 258.843H321.774ZM323.463 258.005C323.463 256.642 323.725 255.428 324.25 254.361C324.775 253.295 325.528 252.47 326.51 251.886C327.5 251.302 328.647 251.01 329.95 251.01C331.804 251.01 333.314 251.577 334.482 252.711C335.659 253.845 336.315 255.385 336.45 257.332L336.476 258.271C336.476 260.379 335.887 262.072 334.711 263.35C333.535 264.619 331.956 265.254 329.976 265.254C327.995 265.254 326.412 264.619 325.228 263.35C324.051 262.08 323.463 260.354 323.463 258.17V258.005ZM327.132 258.271C327.132 259.575 327.377 260.574 327.868 261.268C328.359 261.953 329.062 262.296 329.976 262.296C330.864 262.296 331.558 261.957 332.058 261.28C332.557 260.595 332.807 259.503 332.807 258.005C332.807 256.727 332.557 255.737 332.058 255.034C331.558 254.332 330.856 253.98 329.95 253.98C329.053 253.98 328.359 254.332 327.868 255.034C327.377 255.728 327.132 256.807 327.132 258.271ZM338.164 258.03C338.164 255.889 338.642 254.184 339.599 252.914C340.563 251.645 341.88 251.01 343.547 251.01C344.884 251.01 345.989 251.509 346.86 252.508V245.5H350.542V265H347.229L347.051 263.54C346.137 264.683 344.96 265.254 343.521 265.254C341.905 265.254 340.606 264.619 339.624 263.35C338.651 262.072 338.164 260.299 338.164 258.03ZM341.833 258.297C341.833 259.583 342.057 260.569 342.506 261.255C342.954 261.94 343.606 262.283 344.461 262.283C345.595 262.283 346.395 261.805 346.86 260.849V255.428C346.403 254.471 345.612 253.993 344.486 253.993C342.717 253.993 341.833 255.428 341.833 258.297ZM359.708 265.254C357.694 265.254 356.052 264.636 354.782 263.4C353.521 262.165 352.891 260.519 352.891 258.462V258.106C352.891 256.727 353.157 255.495 353.69 254.412C354.224 253.32 354.977 252.482 355.95 251.898C356.932 251.306 358.049 251.01 359.302 251.01C361.181 251.01 362.658 251.602 363.732 252.787C364.816 253.972 365.357 255.652 365.357 257.827V259.325H356.61C356.729 260.222 357.084 260.942 357.677 261.483C358.278 262.025 359.035 262.296 359.949 262.296C361.363 262.296 362.467 261.784 363.263 260.76L365.065 262.778C364.515 263.557 363.771 264.166 362.831 264.606C361.892 265.038 360.851 265.254 359.708 265.254ZM359.289 253.98C358.561 253.98 357.969 254.226 357.512 254.717C357.063 255.208 356.775 255.91 356.648 256.824H361.752V256.532C361.735 255.72 361.515 255.093 361.092 254.653C360.669 254.205 360.068 253.98 359.289 253.98Z" fill="url(#paint0_linear)"/>
<defs>
<linearGradient id="paint0_linear" x1="140" y1="224" x2="353.875" y2="383.776" gradientUnits="userSpaceOnUse">
<stop offset="0.0919521" stop-color="#FC3F25"/>
<stop offset="1" stop-color="white" stop-opacity="0"/>
</linearGradient>
</defs>
</svg>
